PathFileType	4	(X/Y/Z)	G:\TennisProject\Miami_Dimitrov_Sinner_masked_Sports2D\Miami_Dimitrov_Sinner_masked_Sports2D_px_person03.trc
DataRate	CameraRate	NumFrames	NumMarkers	Units	OrigDataRate	OrigDataStartFrame	OrigNumFrames
25	25	7	22	m	25	311	499
Frame#	Time	Hip			RHip			RKnee			RAnkle			RBigToe			RSmallToe			RHeel			LHip			LKnee			LAnkle			LBigToe			LSmallToe			LHeel			Neck			Head			Nose			RShoulder			RElbow			RWrist			LShoulder			LElbow			LWrist		
		X1	Y1	Z1	X2	Y2	Z2	X3	Y3	Z3	X4	Y4	Z4	X5	Y5	Z5	X6	Y6	Z6	X7	Y7	Z7	X8	Y8	Z8	X9	Y9	Z9	X10	Y10	Z10	X11	Y11	Z11	X12	Y12	Z12	X13	Y13	Z13	X14	Y14	Z14	X15	Y15	Z15	X16	Y16	Z16	X17	Y17	Z17	X18	Y18	Z18	X19	Y19	Z19	X20	Y20	Z20	X21	Y21	Z21	X22	Y22	Z22
311	12.44	572.2259609559842	169.52910398058944	0.0	566.2318496058833	169.99517653256862	0.0	564.996763607556	191.4987187466333	0.0	565.0264379006813	213.6964602382678	0.0	562.4277133266365	218.90810847905968	0.0	560.1155786136738	218.28785985249618	0.0	565.6134693172411	217.18398425905633	0.0	578.181770641965	169.9991453302432	0.0	580.9839659707154	191.28331189033108	0.0	583.629650579933	213.41790557445165	0.0	585.1274642048977	218.182195279488	0.0	587.4125323080067	217.84877699593451	0.0	582.0381484545162	217.01902115313888	0.0	571.5641207427013	138.57549102920555	0.0	570.6686248698661	124.91242418425355	0.0	570.6788435115845	132.64567877092168	0.0	561.3800854103335	144.0334111787434	0.0	560.4258250728767	155.9973417232445	0.0	568.4707148911631	161.55016671012567	0.0	582.3347581666624	143.33980959772376	0.0	584.8123692440881	155.5453515058241	0.0	577.6827541382889	162.46480601434746	0.0
312	12.48	572.1523192252212	169.59161321148684	0.0	566.1968060087656	170.15726969243332	0.0	564.8584060866417	191.56807853934168	0.0	564.856363304081	213.5126253897798	0.0	563.0044734229368	218.64019148711685	0.0	560.401458992608	218.07948339959947	0.0	565.4833652396301	216.96410362682144	0.0	577.9066789442531	170.14334523024593	0.0	580.8669711877442	191.40214700532744	0.0	583.5315889928345	213.1643286071156	0.0	585.12757182275	217.70564887502815	0.0	587.3216304928171	217.33250715974035	0.0	581.7513023434685	216.53417739706322	0.0	571.4384876375282	138.6222681371146	0.0	570.5517442581383	125.04415370615448	0.0	570.4622720997489	132.68051833972504	0.0	561.4154139084317	144.0746983430237	0.0	560.3278787033004	156.0003762646767	0.0	568.364824803725	161.5297999600237	0.0	582.0908208704728	143.30499901418221	0.0	584.5094843020162	155.60710939908242	0.0	577.2185086935498	162.37554365763873	0.0
313	12.52	572.2232167732678	169.59107610957568	0.0	566.259353377058	170.19286522331888	0.0	564.8298975946313	191.6598480831399	0.0	564.7443685687813	213.45649933783628	0.0	563.27161122034	218.74960258679138	0.0	560.4282458584262	218.3680061859724	0.0	565.4195615460235	217.05819428976548	0.0	577.904679904342	170.19138826619889	0.0	580.9400506554342	191.45070218200235	0.0	583.5276162093726	213.0464941120946	0.0	585.2183611505856	218.1389556930416	0.0	587.5351899098061	217.80722202126069	0.0	581.1440792921115	216.73975170685455	0.0	571.4112881384002	138.64986515722137	0.0	570.5302863257041	125.09309434860567	0.0	570.3086873059702	132.65984325330692	0.0	561.4486125186065	143.9685439049614	0.0	560.2905943027436	155.854607929184	0.0	568.2020144170908	161.67193781258672	0.0	582.1243463660867	143.3965689190921	0.0	584.3804111720319	155.54445479464582	0.0	577.4016449529014	162.40395916417305	0.0
314	12.56	572.280280677465	169.58358618109693	0.0	566.2823685679857	170.1717625299897	0.0	564.851894200252	191.6707766898664	0.0	564.6998552436091	213.49955615610733	0.0	563.2003036004053	218.9300023990746	0.0	560.3106078833648	218.64461403291799	0.0	565.4057860868015	217.21591202925086	0.0	578.0639372526193	170.17318494221792	0.0	581.0112093293576	191.4641301701681	0.0	583.5711039543606	213.14808895457435	0.0	585.3007009758256	218.6041002703576	0.0	587.6376814491774	218.3124720853242	0.0	580.9330336827124	217.12639486810897	0.0	571.4944704084364	138.6430772206688	0.0	570.5530582091426	125.05889136346309	0.0	570.3458166149958	132.56350784395843	0.0	561.4259957239651	143.8385775415241	0.0	560.2689131074544	155.71854990544364	0.0	568.2139416363482	161.70982761470256	0.0	582.2579679874046	143.48004853484287	0.0	584.4152838177212	155.43209879963314	0.0	577.662849551384	162.3996057730836	0.0
315	12.6	572.217989492881	169.5931693968024	0.0	566.234381620461	170.20266067762046	0.0	564.8192988153298	191.62156355837055	0.0	564.7239720111565	213.50100281349506	0.0	563.3031651283052	218.81978178954486	0.0	560.3700135854194	218.44344613718752	0.0	565.4892193339047	217.11794956051875	0.0	578.0665773636676	170.2012982038916	0.0	580.9749369905867	191.53285192853753	0.0	583.5674795809376	213.23357327016527	0.0	585.3414871237139	218.18951804405864	0.0	587.4543182828953	217.8567885473521	0.0	581.3366231758575	216.94933811890564	0.0	571.5195030284328	138.6005908617401	0.0	570.5155078779886	125.07722041951617	0.0	570.4396417984601	132.550491545135	0.0	561.4047832702612	143.88970958780925	0.0	560.2534007711215	155.86612552459482	0.0	568.386680807189	161.58863623606968	0.0	582.1512172167635	143.42969220345194	0.0	584.4510716107409	155.51500544931793	0.0	577.3504109038156	162.32555703255844	0.0
316	12.64	572.1591954776768	169.534578945925	0.0	566.211292923771	170.16549146181708	0.0	564.7201606040372	191.55195395225476	0.0	564.7913481826799	213.4852022519577	0.0	563.5160347090681	218.6714931273154	0.0	560.4854600378445	218.19572491204525	0.0	565.62490213498	216.98868482867732	0.0	577.9291022640193	170.16946073730458	0.0	580.9405787240753	191.5594345197984	0.0	583.530170584092	213.15013151172076	0.0	585.3390809964937	217.74486696654643	0.0	587.3850982170993	217.3722675867972	0.0	581.5508324979708	216.59572966057323	0.0	571.4632924819738	138.50445622240719	0.0	570.4785803758587	125.1224177528106	0.0	570.413368368241	132.5889416692395	0.0	561.4270038852384	144.0365407112048	0.0	560.2689294403658	156.05049451599615	0.0	568.424511362404	161.5374915788582	0.0	581.9959565075485	143.36825293097337	0.0	584.4320771083189	155.66855391164984	0.0	577.027191081982	162.3667539226885	0.0
317	12.68	572.2253732203324	169.40727421009544	0.0	566.2651654081067	169.99977381769327	0.0	564.6155105210876	191.47986276158184	0.0	564.8549687705214	213.5079821089478	0.0	563.4313732435995	218.80863081399247	0.0	560.4070077735166	218.327228069188	0.0	565.6387482191992	217.11364606615885	0.0	577.9187535676551	170.01212335593087	0.0	581.0432925342736	191.49571903177088	0.0	583.5301509763378	213.0166054704459	0.0	585.276624874715	218.18189391320095	0.0	587.6241130039479	217.85051374485326	0.0	581.1651857963647	216.71495163364568	0.0	571.4955192041543	138.41101161539302	0.0	570.5303337646417	125.05935546829983	0.0	570.3207461225718	132.51324657746707	0.0	561.4506677591718	144.02996694292628	0.0	560.2890854792645	155.84928630185533	0.0	568.2851667278723	161.6365821034334	0.0	582.1114040679538	143.44675710122502	0.0	584.404844076247	155.60458553152756	0.0	577.3365560652562	162.5232630731515	0.0
